<svg xmlns="http://www.w3.org/2000/svg" version="1.1" xmlns:xlink="http://www.w3.org/1999/xlink" xmlns:svgjs="http://svgjs.dev/svgjs" width="1000" height="174" viewBox="0 0 1000 174"><g transform="matrix(1,0,0,1,-0.6060606060606801,-0.24350905508308074)"><svg viewBox="0 0 396 69" data-background-color="#001f3f" preserveAspectRatio="xMidYMid meet" height="174" width="1000" xmlns="http://www.w3.org/2000/svg" xmlns:xlink="http://www.w3.org/1999/xlink"><g id="tight-bounds" transform="matrix(1,0,0,1,0.24000000000003752,0.09656393563639654)"><svg viewBox="0 0 395.5199999999999 68.8068721287272" height="68.8068721287272" width="395.5199999999999"><g><svg viewBox="0 0 397.4975999999999 69.15090648937084" height="68.8068721287272" width="395.5199999999999"><g><rect width="397.4975999999999" height="2.1180009337160333" x="0" y="38.00229829731273" fill="#ffffff" opacity="1" stroke-width="0" stroke="transparent" fill-opacity="1" class="rect-r$-0" data-fill-palette-color="primary" rx="1%" id="r$-0" data-palette-color="#ffffff"></rect></g><g transform="matrix(1,0,0,1,0.9887999999999693,45.66480429311262)"><svg viewBox="0 0 395.52 23.486102196258223" height="23.486102196258223" width="395.52"><g id="textblocktransform"><svg viewBox="0 0 395.52 23.486102196258223" height="23.486102196258223" width="395.52" id="textblock"><g><svg viewBox="0 0 395.52 23.486102196258223" height="23.486102196258223" width="395.52"><g transform="matrix(1,0,0,1,0,0)"><svg width="395.52" viewBox="3.08 -38.67 656.53 39.21" height="23.486102196258223" data-palette-color="#ffffff"><g class="wordmark-text-0" data-fill-palette-color="primary" id="text-0"><path d="M3.08-5.08L7.2-11.35Q9.28-10.18 11.41-9.24 13.55-8.3 15.84-7.65 18.14-7.01 20.67-6.67 23.19-6.32 26.05-6.32L26.05-6.32Q29.49-6.32 31.91-6.77 34.33-7.23 35.85-8.02 37.38-8.81 38.07-9.91 38.77-11.01 38.77-12.3L38.77-12.3Q38.77-14.38 37.04-15.59 35.3-16.8 31.69-16.8L31.69-16.8Q30.1-16.8 28.34-16.59 26.59-16.38 24.79-16.14 23-15.89 21.25-15.69 19.51-15.48 17.97-15.48L17.97-15.48Q15.41-15.48 13.05-16.14 10.69-16.8 8.87-18.12 7.06-19.43 5.98-21.41 4.91-23.39 4.91-26.03L4.91-26.03Q4.91-27.59 5.33-29.13 5.76-30.66 6.7-32.07 7.64-33.47 9.13-34.68 10.62-35.89 12.73-36.77 14.84-37.65 17.61-38.15 20.39-38.65 23.93-38.65L23.93-38.65Q26.49-38.65 29.08-38.37 31.67-38.09 34.12-37.57 36.57-37.06 38.84-36.34 41.11-35.62 43.07-34.74L43.07-34.74 39.67-28.49Q38.06-29.2 36.21-29.8 34.35-30.4 32.32-30.83 30.3-31.27 28.14-31.53 25.98-31.79 23.73-31.79L23.73-31.79Q20.53-31.79 18.47-31.32 16.41-30.86 15.19-30.14 13.96-29.42 13.49-28.53 13.01-27.64 13.01-26.76L13.01-26.76Q13.01-25.05 14.55-23.96 16.09-22.88 19.24-22.88L19.24-22.88Q20.51-22.88 22.16-23.06 23.8-23.24 25.62-23.46 27.44-23.68 29.33-23.86 31.23-24.05 33.01-24.05L33.01-24.05Q36.38-24.05 38.98-23.29 41.58-22.53 43.33-21.13 45.09-19.73 46-17.74 46.9-15.75 46.9-13.28L46.9-13.28Q46.9-9.99 45.37-7.41 43.85-4.83 41.03-3.06 38.21-1.29 34.23-0.38 30.25 0.54 25.37 0.54L25.37 0.54Q22.14 0.54 19.07 0.13 15.99-0.27 13.17-1.01 10.35-1.76 7.8-2.8 5.25-3.83 3.08-5.08L3.08-5.08ZM53.1-19.31L53.1-19.31Q53.1-23.39 54.64-26.92 56.17-30.44 59.09-33.04 62.01-35.64 66.22-37.13 70.43-38.62 75.75-38.62L75.75-38.62Q80.42-38.62 84.31-37.68 88.21-36.74 91.55-34.81L91.55-34.81 87.99-28.96Q86.98-29.61 85.68-30.13 84.37-30.64 82.9-30.99 81.42-31.35 79.84-31.54 78.27-31.74 76.73-31.74L76.73-31.74Q73.02-31.74 70.11-30.82 67.21-29.91 65.22-28.26 63.23-26.61 62.19-24.33 61.15-22.05 61.15-19.31L61.15-19.31Q61.15-16.48 62.23-14.11 63.3-11.74 65.34-10.02 67.38-8.3 70.32-7.34 73.26-6.37 76.98-6.37L76.98-6.37Q78.66-6.37 80.32-6.62 81.98-6.86 83.53-7.29 85.08-7.71 86.52-8.31 87.96-8.91 89.21-9.62L89.21-9.62 92.77-3.76Q89.65-1.76 85.54-0.62 81.44 0.51 76.83 0.51L76.83 0.51Q70.94 0.51 66.5-1.01 62.06-2.54 59.08-5.21 56.1-7.89 54.6-11.51 53.1-15.14 53.1-19.31ZM101.26 0L101.26-38.16 109-38.16 109-28.2 132.73-28.2 132.73-38.16 140.5-38.16 140.5 0 132.73 0 132.73-21.58 109-21.58 109 0 101.26 0ZM149.09-19.19L149.09-19.19Q149.09-23.51 150.68-27.1 152.26-30.69 155.13-33.26 158-35.84 162.02-37.26 166.03-38.67 170.92-38.67L170.92-38.67Q175.77-38.67 179.8-37.26 183.83-35.84 186.7-33.26 189.57-30.69 191.15-27.1 192.74-23.51 192.74-19.19L192.74-19.19Q192.74-14.84 191.15-11.22 189.57-7.59 186.7-4.98 183.83-2.37 179.8-0.92 175.77 0.54 170.92 0.54L170.92 0.54Q166.03 0.54 162.02-0.92 158-2.37 155.13-4.98 152.26-7.59 150.68-11.22 149.09-14.84 149.09-19.19ZM156.83-19.19L156.83-19.19Q156.83-16.24 157.89-13.87 158.95-11.5 160.84-9.83 162.74-8.15 165.31-7.25 167.89-6.35 170.92-6.35L170.92-6.35Q173.94-6.35 176.52-7.25 179.09-8.15 180.97-9.83 182.85-11.5 183.93-13.87 185-16.24 185-19.19L185-19.19Q185-22.14 183.93-24.49 182.85-26.83 180.97-28.45 179.09-30.08 176.52-30.93 173.94-31.79 170.92-31.79L170.92-31.79Q167.89-31.79 165.31-30.93 162.74-30.08 160.84-28.45 158.95-26.83 157.89-24.49 156.83-22.14 156.83-19.19ZM201.33 0L201.33-38.16 209.07-38.16 209.07-6.79 231.26-6.79 231.26 0 201.33 0ZM233.85 0L251.77-38.16 259.97-38.16 278.43 0 270.3 0 267.25-6.42 244.96-6.42 242 0 233.85 0ZM247.91-12.79L264.2-12.79 255.94-30.13 247.91-12.79ZM284.36 0L284.36-38.16 303.77-38.16Q308.16-38.16 311.39-37.24 314.61-36.33 316.73-34.59 318.86-32.86 319.89-30.37 320.93-27.88 320.93-24.73L320.93-24.73Q320.93-22.61 320.42-20.69 319.91-18.77 318.84-17.16 317.78-15.55 316.17-14.29 314.56-13.04 312.39-12.21L312.39-12.21 320.69 0 311.22 0 304.04-10.84 303.82-10.84 292.1-10.86 292.1 0 284.36 0ZM292.1-17.55L303.96-17.55Q306.16-17.55 307.81-18.07 309.46-18.58 310.57-19.51 311.68-20.43 312.23-21.77 312.78-23.1 312.78-24.73L312.78-24.73Q312.78-27.93 310.58-29.68 308.38-31.42 303.96-31.42L303.96-31.42 292.1-31.42 292.1-17.55Z" fill="#ffffff" data-fill-palette-color="primary"></path><path d="M340.63-19.31L340.63-19.31Q340.63-23.39 342.17-26.92 343.71-30.44 346.62-33.04 349.54-35.64 353.75-37.13 357.96-38.62 363.29-38.62L363.29-38.62Q367.95-38.62 371.84-37.68 375.74-36.74 379.08-34.81L379.08-34.81 375.52-28.96Q374.52-29.61 373.21-30.13 371.9-30.64 370.43-30.99 368.95-31.35 367.38-31.54 365.8-31.74 364.26-31.74L364.26-31.74Q360.55-31.74 357.65-30.82 354.74-29.91 352.75-28.26 350.76-26.61 349.72-24.33 348.69-22.05 348.69-19.31L348.69-19.31Q348.69-16.48 349.76-14.11 350.83-11.74 352.87-10.02 354.91-8.3 357.85-7.34 360.8-6.37 364.51-6.37L364.51-6.37Q366.19-6.37 367.85-6.62 369.51-6.86 371.06-7.29 372.61-7.71 374.05-8.31 375.49-8.91 376.74-9.62L376.74-9.62 380.3-3.76Q377.18-1.76 373.08-0.62 368.97 0.51 364.36 0.51L364.36 0.51Q358.48 0.51 354.03-1.01 349.59-2.54 346.61-5.21 343.63-7.89 342.13-11.51 340.63-15.14 340.63-19.31ZM386.57-19.19L386.57-19.19Q386.57-23.51 388.16-27.1 389.75-30.69 392.62-33.26 395.49-35.84 399.5-37.26 403.52-38.67 408.4-38.67L408.4-38.67Q413.26-38.67 417.29-37.26 421.32-35.84 424.18-33.26 427.05-30.69 428.64-27.1 430.23-23.51 430.23-19.19L430.23-19.19Q430.23-14.84 428.64-11.22 427.05-7.59 424.18-4.98 421.32-2.37 417.29-0.92 413.26 0.54 408.4 0.54L408.4 0.54Q403.52 0.54 399.5-0.92 395.49-2.37 392.62-4.98 389.75-7.59 388.16-11.22 386.57-14.84 386.57-19.19ZM394.31-19.19L394.31-19.19Q394.31-16.24 395.38-13.87 396.44-11.5 398.33-9.83 400.22-8.15 402.8-7.25 405.37-6.35 408.4-6.35L408.4-6.35Q411.43-6.35 414-7.25 416.58-8.15 418.46-9.83 420.34-11.5 421.41-13.87 422.49-16.24 422.49-19.19L422.49-19.19Q422.49-22.14 421.41-24.49 420.34-26.83 418.46-28.45 416.58-30.08 414-30.93 411.43-31.79 408.4-31.79L408.4-31.79Q405.37-31.79 402.8-30.93 400.22-30.08 398.33-28.45 396.44-26.83 395.38-24.49 394.31-22.14 394.31-19.19ZM438.77 0L438.77-38.16 446.51-38.16 470.29-25.71 470.29-38.16 478.03-38.16 478.03 0 470.29 0 470.29-17.5 446.51-29.88 446.51 0 438.77 0ZM488.77 0L488.77-38.16 496.51-38.16 520.29-25.71 520.29-38.16 528.02-38.16 528.02 0 520.29 0 520.29-17.5 496.51-29.88 496.51 0 488.77 0ZM538.81 0L538.81-38.16 571.31-38.16 571.31-31.37 546.55-31.37 546.55-23.75 568.48-23.75 568.48-17.38 546.55-17.38 546.55-6.76 571.82-6.76 571.82 0 538.81 0ZM578.09-19.31L578.09-19.31Q578.09-23.39 579.63-26.92 581.17-30.44 584.09-33.04 587-35.64 591.22-37.13 595.43-38.62 600.75-38.62L600.75-38.62Q605.41-38.62 609.31-37.68 613.2-36.74 616.54-34.81L616.54-34.81 612.98-28.96Q611.98-29.61 610.67-30.13 609.37-30.64 607.89-30.99 606.41-31.35 604.84-31.54 603.26-31.74 601.73-31.74L601.73-31.74Q598.01-31.74 595.11-30.82 592.2-29.91 590.21-28.26 588.22-26.61 587.19-24.33 586.15-22.05 586.15-19.31L586.15-19.31Q586.15-16.48 587.22-14.11 588.3-11.74 590.34-10.02 592.37-8.3 595.32-7.34 598.26-6.37 601.97-6.37L601.97-6.37Q603.65-6.37 605.31-6.62 606.97-6.86 608.52-7.29 610.08-7.71 611.52-8.31 612.96-8.91 614.2-9.62L614.2-9.62 617.77-3.76Q614.64-1.76 610.54-0.62 606.44 0.51 601.82 0.51L601.82 0.51Q595.94 0.51 591.5-1.01 587.05-2.54 584.07-5.21 581.1-7.89 579.59-11.51 578.09-15.14 578.09-19.31ZM637.78 0L637.78-31.37 623.7-31.37 623.7-38.16 659.61-38.16 659.61-31.37 645.52-31.37 645.52 0 637.78 0Z" fill="#00d1cd" data-fill-palette-color="secondary"></path></g></svg></g></svg></g></svg></g></svg></g><g transform="matrix(1,0,0,1,177.13127374619242,0)"><svg viewBox="0 0 43.2350525076151 32.45779323522887" height="32.45779323522887" width="43.2350525076151"><g><svg xmlns="http://www.w3.org/2000/svg" xmlns:xlink="http://www.w3.org/1999/xlink" version="1.1" x="0" y="0" viewBox="0 0 133.20391868381506 99.99999999999999" style="enable-background:new 0 0 133.3 100;" xml:space="preserve" width="43.2350525076151" height="32.45779323522887" class="icon-icon-0" data-fill-palette-color="accent" id="icon-0"><g fill="#00d1cd" data-fill-palette-color="accent"><path d="M126.2 11.8c-1.5-0.5-3.1 0.8-3.1 2.6v63.8c0 2.1-1.8 3.8-3.8 3.8H14.1c-2.1 0-3.8-1.8-3.8-3.8V14.6c0-1.8-2.1-3.1-3.6-2.3C2.8 14.1 0 18.2 0 23.1v59c0 5.6 4.6 10.3 10.3 10.3h42.3c2.1 0 3.8 1.8 3.8 3.8 0 2.1 1.8 3.8 3.8 3.8h12.8c2.1 0 3.8-1.8 3.8-3.8 0-2.1 1.8-3.8 3.8-3.8h42.3c5.6 0 10.3-4.6 10.3-10.3v-59C133.3 17.7 131.5 13.1 126.2 11.8z" fill="#00d1cd" data-fill-palette-color="accent"></path><path d="M75.6 71.8H109c2.1 0 3.8-1.8 3.8-3.8V3.8c0-2.1-1.8-3.8-3.8-3.8H80c-3.8 0-8.2 3.3-8.2 7.7v60.3C71.8 70 73.6 71.8 75.6 71.8z" fill="#00d1cd" data-fill-palette-color="accent"></path><path d="M24.4 71.8h33.3c2.1 0 3.8-1.8 3.8-3.8V7.7c0-4.4-4.6-7.7-8.2-7.7h-29c-2.1 0-3.8 1.8-3.8 3.8v64.1C20.5 70 22.3 71.8 24.4 71.8z" fill="#00d1cd" data-fill-palette-color="accent"></path></g></svg></g></svg></g><g></g></svg></g><defs></defs></svg><rect width="395.5199999999999" height="68.8068721287272" fill="none" stroke="none" visibility="hidden"></rect></g></svg></g></svg>